:SAMPLES-PER-SECOND 30
:FRAME-RANGE 1-3358
:FULLY-SPECIFIED
:DEGREES
840
root  60.6272 38.8865 16.1257 -150.57 -80.5213 151.622
RightUpLeg  -15.7467 -1.55022 -10.9378
RightLeg  34.1329 -6.59942 -5.02767
RightFoot  -16.1183 0.22447 7.99464
RightToes  -1.11029e-010 1.2921e-014 -6.02303e-014
Spine  -2.50713 -0.966459 -0.977823
Spine1  7.87289 -0.208918 -5.61471
HEad  -8.14751 -19.774 9.49386
LeftShoulder1  1.85768 -3.08908 -23.0323
LeftArm  -0.585249 7.97384 -46.6675
LeftForeArm  41.0902 6.21481 -13.486
LeftHand  0.00517329 6.48553 3.79429
RightShoulder  2.16624 4.20485 22.6887
RightArm  42.5642 17.4289 77.6164
RightForeArm  16.0808 24.1375 4.32037
RightHand  0.0114508 -5.62726 -13.8652
LeftUpLeg  -7.42405 0.304512 -6.91055
LeftLeg  19.8138 4.55048 2.61954
LeftFoot  -13.4086 0.0779585 -0.138474
LeftToes  -1.90334e-010 -8.83595e-011 4.99953e-011
841
root  60.9916 38.9408 15.7699 -154.521 -78.2671 155.565
RightUpLeg  -12.5781 -1.28455 -13.4477
RightLeg  32.7556 -6.40388 -4.65239
RightFoot  -16.7073 0.232403 7.371
RightToes  -1.11029e-010 1.2921e-014 -6.02303e-014
Spine  -3.39294 -0.636664 -0.633183
Spine1  8.33759 0.130943 -6.03166
HEad  -7.93046 -18.3826 9.19477
LeftShoulder1  1.73966 -2.61512 -23.3808
LeftArm  -1.30881 9.97257 -46.0905
LeftForeArm  40.6667 7.34086 -13.3186
LeftHand  0.00614926 6.62915 3.54131
RightShoulder  2.21059 4.27155 23.0425
RightArm  45.262 15.9011 78.5791
RightForeArm  14.6228 23.8956 4.34592
RightHand  0.0270357 -5.75861 -13.9278
LeftUpLeg  -7.50378 0.954374 -6.53239
LeftLeg  19.0746 5.99905 2.87884
LeftFoot  -12.6467 0.0640667 -1.03611
LeftToes  -1.90334e-010 -8.83595e-011 4.99953e-011
842
root  61.3286 39.0057 15.3882 -157.322 -75.7485 158.416
RightUpLeg  -9.52978 -1.34186 -16.1047
RightLeg  30.3895 -6.34419 -4.22964
RightFoot  -17.34 0.246382 6.941
RightToes  -1.11029e-010 1.2921e-014 -6.02303e-014
Spine  -4.46666 -0.342648 -0.193924
Spine1  8.97965 0.447474 -6.35966
HEad  -7.34364 -16.8765 8.51918
LeftShoulder1  1.62315 -2.15289 -23.7514
LeftArm  -1.32463 11.7207 -45.6537
LeftForeArm  40.1689 7.68603 -13.4213
LeftHand  0.00492203 6.71871 3.26478
RightShoulder  2.23456 4.28889 23.3074
RightArm  48.1612 14.685 79.6494
RightForeArm  13.1909 23.3052 4.40891
RightHand  0.0384702 -5.84138 -14.276
LeftUpLeg  -7.394 1.49853 -6.1426
LeftLeg  18.0553 7.79996 3.14553
LeftFoot  -11.7702 0.0634816 -1.90173
LeftToes  -1.90334e-010 -8.83595e-011 4.99953e-011
843
root  61.6552 39.0905 14.9714 -159.964 -72.8818 161.206
RightUpLeg  -6.99023 -1.08144 -18.5141
RightLeg  27.4767 -7.08624 -4.20021
RightFoot  -16.8046 0.185442 6.27092
RightToes  -1.11029e-010 1.2921e-014 -6.02303e-014
Spine  -5.36402 -0.0161937 0.62013
Spine1  9.33238 0.839512 -6.74828
HEad  -6.42667 -15.0784 7.67461
LeftShoulder1  1.49701 -1.66498 -24.1495
LeftArm  -1.18883 13.2575 -45.3041
LeftForeArm  40.1807 7.6645 -13.5401
LeftHand  0.00351768 6.82287 2.98485
RightShoulder  2.30991 4.43774 23.7423
RightArm  49.7035 13.3386 80.1991
RightForeArm  12.8942 23.0491 4.49908
RightHand  0.0292438 -5.77459 -14.0043
LeftUpLeg  -7.14804 2.12177 -5.50498
LeftLeg  16.7938 9.92011 3.28961
LeftFoot  -10.7586 0.078939 -2.8355
LeftToes  -1.90334e-010 -8.83595e-011 4.99953e-011
844
root  61.9798 39.2039 14.4983 -162.288 -69.836 163.703
RightUpLeg  -4.97792 -1.55382 -20.541
RightLeg  24.2238 -8.05381 -4.15163
RightFoot  -14.6725 0.0304134 4.46547
RightToes  -1.11029e-010 1.2921e-014 -6.02303e-014
Spine  -6.15613 0.313774 1.57339
Spine1  9.78646 1.25061 -7.0042
HEad  -5.77471 -13.2243 7.02363
LeftShoulder1  1.35316 -1.16805 -24.2829
LeftArm  -0.938106 14.2062 -45.3612
LeftForeArm  40.4932 7.62446 -13.6656
LeftHand  0.00438669 6.90543 2.92616
RightShoulder  2.33064 4.3795 24.2654
RightArm  51.2805 12.214 80.3772
RightForeArm  12.5374 23.3357 4.44085
RightHand  0.0479421 -5.93921 -13.8828
LeftUpLeg  -6.4952 2.64394 -4.68407
LeftLeg  14.972 12.3149 3.39837
LeftFoot  -9.5435 0.119606 -3.97572
LeftToes  -1.90334e-010 -8.83595e-011 4.99953e-011
845
root  62.3603 39.2837 13.9766 -164.085 -66.5166 165.831
RightUpLeg  -3.8963 -3.1555 -22.1875
RightLeg  21.1515 -9.00125 -4.02534
RightFoot  -12.9531 -0.0551896 2.31609
RightToes  -1.11029e-010 1.2921e-014 -6.02303e-014
Spine  -6.48372 0.590358 2.57183
Spine1  9.71204 1.61553 -7.30293
HEad  -5.2536 -11.2313 6.36795
LeftShoulder1  1.2469 -0.798876 -24.4188
LeftArm  -0.518519 14.8607 -45.5085
LeftForeArm  40.6679 7.58245 -13.7895
LeftHand  0.00876499 7.10081 2.95249
RightShoulder  2.3589 4.37183 24.6855
RightArm  52.6814 11.3115 80.2501
RightForeArm  12.0869 23.7816 4.45644
RightHand  0.0595605 -6.07286 -13.3141
LeftUpLeg  -6.12305 3.09031 -3.8109
LeftLeg  13.5063 14.9936 3.72725
LeftFoot  -8.37372 0.185608 -5.22624
LeftToes  -1.90334e-010 -8.83595e-011 4.99953e-011
846
root  62.8532 39.2993 13.3716 -164.921 -63.183 167.227
RightUpLeg  -3.80978 -5.22209 -23.2642
RightLeg  18.7943 -10.2251 -4.04989
RightFoot  -13.2223 -0.0447002 2.73524
RightToes  -1.11029e-010 1.2921e-014 -6.02303e-014
Spine  -6.68097 0.673046 2.86723
Spine1  9.80043 1.75892 -7.32775
HEad  -5.51362 -8.96072 5.94223
LeftShoulder1  1.18876 -0.619349 -24.3214
LeftArm  -0.182485 14.9357 -45.9587
LeftForeArm  40.6756 7.56083 -13.8547
LeftHand  0.0100952 7.21096 2.89828
RightShoulder  2.38344 4.41801 24.8276
RightArm  53.767 11.0567 80.0998
RightForeArm  12.2131 24.3377 4.56879
RightHand  0.0617094 -6.11553 -12.96
LeftUpLeg  -6.37564 3.59707 -2.84313
LeftLeg  12.8177 17.5811 4.14527
LeftFoot  -7.36283 0.276226 -6.67848
LeftToes  -1.90334e-010 -8.83595e-011 4.99953e-011
847
root  63.4238 39.314 12.6923 -165.544 -60.0279 168.566
RightUpLeg  -4.73127 -7.67772 -23.1669
RightLeg  17.6628 -12.8117 -4.71859
RightFoot  -11.6934 -0.0730777 2.01038
RightToes  -1.11029e-010 1.2921e-014 -6.02303e-014
Spine  -6.69714 0.527585 2.90409
Spine1  9.70939 1.61744 -6.97704
HEad  -6.39884 -6.52368 5.72722
LeftShoulder1  1.22245 -0.757859 -24.1088
LeftArm  0.583698 14.5259 -46.4542
LeftForeArm  40.3791 7.50052 -14.0462
LeftHand  0.0111711 7.26386 3.00841
RightShoulder  2.38266 4.38446 24.958
RightArm  55.4064 11.3036 80.0446
RightForeArm  11.8373 24.4815 4.61994
RightHand  0.059538 -6.10578 -12.8078
LeftUpLeg  -6.67373 4.14204 -1.56717
LeftLeg  12.0486 19.9877 4.52443
LeftFoot  -6.13706 0.412633 -8.26136
LeftToes  -1.90334e-010 -8.83595e-011 4.99953e-011
